# xmcd
#
# Track frame offsets: 
#        180
#        20159
#        40311
#        59584
#        75422
#        90686
#        118777
#        145150
#        162966
#        177307
#        197294
#        212143
#        216494
#        231049
#        255023
#        270113
#
# Disc length: 4100 seconds
#
# Revision: 2
# Processed by: cddbd v1.5.2PL0 Copyright (c) Steve Scherf et al.
# Submitted via: ExactAudioCopy v0.90b4
#
DISCID=d8100210
DTITLE=Saure Gummern - Geerer Schnittsche
DYEAR=1998
DGENRE=Folk
TTITLE0=Geerer Schnittscher
TTITLE1=Schickt misch in die Höll
TTITLE2=Isch hab gedraamt
TTITLE3=Wann se misch küßt
TTITLE4=De Gorilla aus'm Frankfurter Zoo
TTITLE5=Dicker Bub vum diefe Ried
TTITLE6=Antipode Blues
TTITLE7=Verrickt nach Nikotin
TTITLE8=Viel zu dicke Zigann
TTITLE9=Hier hab ich mi Ruh
TTITLE10=Schmeißt misch in de Ozjan
TTITLE11=Stiwwelsche muß sterwe
TTITLE12=Schloofliedsche
TTITLE13=Was bessers wie de Dood
TTITLE14=Komm, moin Schatz
TTITLE15=Vallebom 21.10.97 (1608 - 1615 Uhr)
EXTD=
EXTT0=
EXTT1=
EXTT2=
EXTT3=
EXTT4=
EXTT5=
EXTT6=
EXTT7=
EXTT8=
EXTT9=
EXTT10=
EXTT11=
EXTT12=
EXTT13=
EXTT14=
EXTT15=
PLAYORDER=
